<svg width="25" height="25" fill="none" xmlns="http://www.w3.org/2000/svg"><path fill-rule="evenodd" clip-rule="evenodd" d="M2.628 1.5H0v-1h3.447l3.475 17.216.002.04a.75.75 0 00.737.737H23.95v1H7.66c-.94 0-1.675-.744-1.733-1.654L2.628 1.5z" fill="#202020"/><path fill-rule="evenodd" clip-rule="evenodd" d="M3.5 3.314h19.401c.565 0 1.088.218 1.46.668l.009.01.008.01c.322.432.466.979.359 1.554v.002l-1.532 8.034v.002c-.207 1.107-1.247 1.942-2.33 1.976H5.865v-1H20.85c.634-.024 1.256-.54 1.372-1.161v-.002l1.532-8.034v-.001a.966.966 0 00-.17-.762c-.165-.193-.392-.296-.683-.296H3.5v-1zM10 21.67c-.625 0-1.151.52-1.151 1.165S9.375 24 9.999 24c.624 0 1.15-.52 1.15-1.165 0-.644-.525-1.164-1.15-1.164zm-2.151 1.165c0-1.19.968-2.164 2.15-2.164 1.183 0 2.15.974 2.15 2.164 0 1.19-.967 2.165-2.15 2.165a2.164 2.164 0 01-2.15-2.165zm12.069-1.165c-.624 0-1.15.52-1.15 1.165S19.293 24 19.917 24s1.15-.52 1.15-1.165c0-.644-.526-1.164-1.15-1.164zm-2.15 1.165c0-1.19.967-2.164 2.15-2.164a2.165 2.165 0 010 4.329 2.164 2.164 0 01-2.15-2.165z" fill="#202020"/></svg>