<svg width="25" height="25" viewBox="0 0 25 25" fill="none" xmlns="http://www.w3.org/2000/svg">
<path fill-rule="evenodd" clip-rule="evenodd" d="M2.62826 1.5H0V0.5H3.44655L6.92226 17.7159L6.92385 17.7558C6.94065 18.1785 7.27137 18.4932 7.66071 18.4932H23.9498V19.4932H7.66071C6.72084 19.4932 5.9847 18.7493 5.92686 17.8386L2.62826 1.5Z" fill="#202020"/>
<path fill-rule="evenodd" clip-rule="evenodd" d="M3.5 3.31398H22.9015C23.4663 3.31398 23.9893 3.53219 24.3618 3.98217L24.37 3.99202L24.3776 4.00228C24.6997 4.43448 24.8442 4.98094 24.737 5.55604L24.7366 5.55813L23.2049 13.5921C23.2048 13.5926 23.2047 13.5931 23.2046 13.5936C22.9976 14.7005 21.9576 15.5356 20.8744 15.5697L20.8665 15.5699H5.86646V14.5699H20.8501C21.4842 14.5462 22.106 14.0307 22.2218 13.409L22.2222 13.4069L23.7539 5.37293C23.754 5.37251 23.7541 5.3721 23.7542 5.37169C23.807 5.08608 23.7396 4.8251 23.5834 4.61019C23.419 4.41702 23.1921 4.31398 22.9015 4.31398H3.5V3.31398Z" fill="#202020"/>
<path fill-rule="evenodd" clip-rule="evenodd" d="M9.99925 21.6708C9.37504 21.6708 8.84888 22.1909 8.84888 22.8354C8.84888 23.4799 9.37504 24 9.99925 24C10.6235 24 11.1496 23.4799 11.1496 22.8354C11.1496 22.1909 10.6235 21.6708 9.99925 21.6708ZM7.84888 22.8354C7.84888 21.6449 8.81655 20.6708 9.99925 20.6708C11.182 20.6708 12.1496 21.6449 12.1496 22.8354C12.1496 24.0259 11.182 25 9.99925 25C8.81655 25 7.84888 24.0259 7.84888 22.8354Z" fill="#202020"/>
<path fill-rule="evenodd" clip-rule="evenodd" d="M19.9178 21.6708C19.2936 21.6708 18.7675 22.1909 18.7675 22.8354C18.7675 23.4799 19.2936 24 19.9178 24C20.542 24 21.0682 23.4799 21.0682 22.8354C21.0682 22.1909 20.542 21.6708 19.9178 21.6708ZM17.7675 22.8354C17.7675 21.6449 18.7351 20.6708 19.9178 20.6708C21.1005 20.6708 22.0682 21.6449 22.0682 22.8354C22.0682 24.0259 21.1005 25 19.9178 25C18.7351 25 17.7675 24.0259 17.7675 22.8354Z" fill="#202020"/>
</svg>
