<svg width="25" height="24" viewBox="0 0 25 24" fill="none" xmlns="http://www.w3.org/2000/svg">
<path fill-rule="evenodd" clip-rule="evenodd" d="M9.23898 17.478C13.7892 17.478 17.478 13.7892 17.478 9.23898C17.478 4.68871 13.7892 1 9.23898 1C4.68871 1 1 4.68871 1 9.23898C1 13.7892 4.68871 17.478 9.23898 17.478ZM9.23898 18.478C14.3415 18.478 18.478 14.3415 18.478 9.23898C18.478 4.13643 14.3415 0 9.23898 0C4.13643 0 0 4.13643 0 9.23898C0 14.3415 4.13643 18.478 9.23898 18.478Z" fill="#202020"/>
<path fill-rule="evenodd" clip-rule="evenodd" d="M23.9999 24L15.3982 15.3983L16.1053 14.6912L24.7071 23.2929L23.9999 24Z" fill="#202020"/>
</svg>
